<svg xmlns="http://www.w3.org/2000/svg" xmlns:xlink="http://www.w3.org/1999/xlink" style="margin:auto;background:trannsparent;display:block;shape-rendering:auto" preserveAspectRatio="xMidYMid" viewBox="0 0 100 100"><g><g><g><g transform="translate(50 50) scale(0.32) translate(-50 -50)"><animateTransform attributeName="transform" dur="0.5434782608695652s" keyTimes="0;1" repeatCount="indefinite" type="rotate" values="0 50 50;360 50 50"/><path fill="#4669fa" fill-opacity=".8" d="M50 50L50 0A50 50 0 0 1 100 50Z"/></g><g transform="translate(50 50) scale(0.32) translate(-50 -50)"><animateTransform attributeName="transform" dur="0.7246376811594202s" keyTimes="0;1" repeatCount="indefinite" type="rotate" values="0 50 50;360 50 50"/><path fill="#50c793" fill-opacity=".8" d="M50 50L50 0A50 50 0 0 1 100 50Z" transform="rotate(90 50 50)"/></g><g transform="translate(50 50) scale(0.32) translate(-50 -50)"><animateTransform attributeName="transform" dur="1.0869565217391304s" keyTimes="0;1" repeatCount="indefinite" type="rotate" values="0 50 50;360 50 50"/><path fill="#a0aec0" fill-opacity=".8" d="M50 50L50 0A50 50 0 0 1 100 50Z" transform="rotate(180 50 50)"/></g><g transform="translate(50 50) scale(0.32) translate(-50 -50)"><animateTransform attributeName="transform" dur="2.1739130434782608s" keyTimes="0;1" repeatCount="indefinite" type="rotate" values="0 50 50;360 50 50"/><path fill="#f1595c" fill-opacity=".8" d="M50 50L50 0A50 50 0 0 1 100 50Z" transform="rotate(270 50 50)"/></g></g></g></g></svg>